<?xml version="1.0" encoding="utf-8"?>
<!-- Generator: Adobe Illustrator 24.2.1, SVG Export Plug-In . SVG Version: 6.00 Build 0)  -->
<svg version="1.1" id="Layer_1" xmlns="http://www.w3.org/2000/svg" xmlns:xlink="http://www.w3.org/1999/xlink" x="0px" y="0px"
	 viewBox="0 0 795 328" style="enable-background:new 0 0 795 328;" xml:space="preserve" fill="white">
<path d="M76,77.2c3.1,0,6,0.6,8.8,1.9c2.8,1.3,5.1,3,7,5.3L103.7,74c-3.4-4-7.6-7.1-12.4-9.3c-4.8-2.2-9.9-3.4-15.4-3.4
	c-6.7,0-12.9,1.6-18.5,4.9C51.8,69.5,47.3,74,44,79.7c-3.3,5.7-4.9,11.9-4.9,18.5c0,6.7,1.6,12.9,4.9,18.5s7.8,10.2,13.5,13.5
	c5.7,3.3,11.9,5,18.5,5c5.4,0,10.6-1.1,15.4-3.4c4.8-2.2,8.9-5.3,12.4-9.3l-11.9-10.4c-1.9,2.2-4.2,4-7,5.3
	c-2.8,1.3-5.7,1.9-8.8,1.9c-5.9,0-10.9-2.1-15-6.2c-4.1-4.1-6.2-9.1-6.2-15c0-5.8,2.1-10.8,6.2-14.9C65.1,79.2,70.1,77.2,76,77.2z"
	/>
<path d="M166.2,66.2c-5.7-3.3-11.9-4.9-18.5-4.9s-12.9,1.6-18.5,4.9c-5.7,3.3-10.2,7.8-13.5,13.5c-3.3,5.7-4.9,11.9-4.9,18.5
	c0,6.7,1.6,12.9,4.9,18.5s7.8,10.2,13.5,13.5c5.7,3.3,11.9,5,18.5,5s12.9-1.7,18.5-5c5.7-3.3,10.2-7.8,13.5-13.5
	c3.3-5.7,4.9-11.9,4.9-18.5c0-6.7-1.6-12.9-4.9-18.5C176.4,74,171.9,69.5,166.2,66.2z M162.6,113.2c-4.1,4.1-9.1,6.2-14.9,6.2
	c-5.9,0-10.9-2.1-15-6.2c-4.1-4.1-6.2-9.1-6.2-15c0-5.8,2.1-10.8,6.2-14.9c4.1-4.1,9.1-6.2,15-6.2c5.8,0,10.8,2.1,14.9,6.2
	c4.1,4.1,6.2,9.1,6.2,14.9C168.8,104.1,166.7,109.1,162.6,113.2z"/>
<path d="M284.4,62.7c-11.4,0-19.6,4.6-24.6,13.8c-4.9-9.2-12.9-13.8-24.1-13.8c-8.5,0-15.3,2.7-20.3,8.1v-6.3h-17.6v70.4h17.6V99.7
	c0-6.7,1.4-11.9,4.1-15.6c2.7-3.7,6.6-5.5,11.7-5.5s9,1.8,11.7,5.5c2.7,3.7,4.1,8.8,4.1,15.6v35.2h17.6V99.7
	c0-6.7,1.4-11.9,4.1-15.6c2.7-3.7,6.6-5.5,11.7-5.5s9,1.8,11.7,5.5c2.7,3.7,4.1,8.8,4.1,15.6v35.2h17.6V99.7c0-11.9-2.6-21-7.7-27.4
	C301.2,65.9,293.9,62.7,284.4,62.7z"/>
<path d="M372.7,61.3c-9,0-16.6,3.2-22.8,9.6v-7.8h-17.6v93.7h17.6v-31.1c6.3,6.4,13.9,9.6,22.8,9.6c6.3,0,11.9-1.6,17-4.8
	c5.1-3.2,9.1-7.7,12-13.3s4.4-11.9,4.4-18.9c0-10.6-3.2-19.3-9.6-26.4C390.2,64.8,382.3,61.3,372.7,61.3z M384.1,113.2
	c-4.1,4.1-9.1,6.2-14.9,6.2c-5.9,0-10.9-2.1-15-6.2c-4.1-4.1-6.2-9.1-6.2-15c0-5.8,2.1-10.8,6.2-14.9c4.1-4.1,9.1-6.2,15-6.2
	c5.8,0,10.8,2.1,14.9,6.2c4.1,4.1,6.2,9.1,6.2,14.9C390.3,104.1,388.3,109.1,384.1,113.2z"/>
<path d="M469.7,98.2c0,6.8-1.4,12-4.3,15.6c-2.9,3.7-7,5.5-12.4,5.5s-9.5-1.8-12.4-5.5s-4.3-8.9-4.3-15.6V63.1h-17.6v35.2
	c0,11.9,2.6,21,7.8,27.4c5.2,6.4,12.6,9.6,22.2,9.6c8.9,0,16-2.8,21.1-8.4v6.6h17.5V63.1h-17.5V98.2z"/>
<polygon points="523.9,78.6 535.3,78.6 535.3,64.5 523.9,64.5 523.9,52.8 506.2,52.8 506.2,134.9 536.2,134.9 536.2,120.8 
	523.9,120.8 "/>
<rect x="551.5" y="64.5" width="17.6" height="70.4"/>
<path d="M560.3,27c-3.2,0-5.8,1.1-8.1,3.4s-3.4,4.9-3.4,8.1s1.1,5.8,3.4,8.1s4.9,3.4,8.1,3.4s5.8-1.1,8.1-3.4s3.4-4.9,3.4-8.1
	s-1.1-5.8-3.4-8.1S563.4,27,560.3,27z"/>
<path d="M626.9,62.7c-8.9,0-16,2.8-21.1,8.4v-6.6h-17.6v70.4h17.6V99.7c0-6.7,1.4-11.9,4.3-15.6c2.9-3.7,7-5.5,12.4-5.5
	c5.3,0,9.5,1.8,12.4,5.5c2.9,3.7,4.4,8.8,4.4,15.6v35.2h17.6V99.7c0-11.9-2.6-21-7.8-27.4C643.9,65.9,636.5,62.7,626.9,62.7z"/>
<path d="M726.5,62.2V70c-6.3-6.4-13.9-9.6-22.9-9.6c-9.5,0-17.5,3.5-23.9,10.6c-6.4,7-9.6,15.8-9.6,26.4c0,6.9,1.5,13.2,4.4,18.9
	c2.9,5.7,6.9,10.1,12,13.3s10.8,4.8,17,4.8c9,0,16.7-3.2,22.9-9.6l-0.2,31.8h-51.1v14.1h68.8V62.2H726.5z M722.1,112.3
	c-4.1,4.1-9.1,6.2-14.9,6.2c-5.9,0-10.9-2.1-15-6.2c-4.1-4.1-6.2-9.1-6.2-15c0-5.8,2.1-10.8,6.2-14.9c4.1-4.1,9.1-6.2,15-6.2
	c5.8,0,10.8,2.1,14.9,6.2c4.1,4.1,6.2,9.1,6.2,14.9C728.3,103.2,726.2,108.2,722.1,112.3z"/>
<path d="M218.9,187.3h17.5v108.5h-68.8v-14.1h51.1l0.2-31.8c-6.3,6.4-13.9,9.6-22.9,9.6c-6.3,0-11.9-1.6-17-4.8
	c-5.1-3.2-9.1-7.7-12-13.3c-2.9-5.7-4.4-11.9-4.4-18.9c0-10.6,3.2-19.3,9.6-26.4c6.4-7,14.3-10.6,23.9-10.6c9,0,16.7,3.2,22.9,9.6
	V187.3z M199.5,243.6c5.8,0,10.8-2.1,14.9-6.2c4.1-4.1,6.2-9.1,6.2-15c0-5.8-2.1-10.7-6.2-14.9s-9.1-6.2-14.9-6.2
	c-5.9,0-10.9,2.1-15,6.2c-4.1,4.1-6.2,9.1-6.2,14.9c0,5.9,2.1,10.9,6.2,15C188.7,241.5,193.7,243.6,199.5,243.6z"/>
<path d="M73.4,281.7v14.1H43.5V159.7h17.6l0.2,10h20.1v14.1H61.3l-0.2,97.9H73.4z"/>
<path d="M362.8,245v14.1h-29.9v-84.7h17.6v14.4h11.5v14.1h-11.5V245H362.8z"/>
<path d="M99.8,190.5c5.7-3.3,11.9-4.9,18.5-4.9c6.7,0,12.9,1.6,18.5,4.9c5.7,3.3,10.2,7.8,13.5,13.5c3.3,5.7,4.9,11.9,4.9,18.5
	c0,6.7-1.6,12.9-4.9,18.5c-3.3,5.7-7.8,10.2-13.5,13.5c-5.7,3.3-11.9,5-18.5,5c-6.7,0-12.9-1.7-18.5-5c-5.7-3.3-10.2-7.8-13.5-13.5
	c-3.3-5.7-4.9-11.9-4.9-18.5c0-6.7,1.6-12.9,4.9-18.5C89.6,198.2,94.1,193.7,99.8,190.5z M118.3,243.6c5.8,0,10.8-2.1,14.9-6.2
	c4.1-4.1,6.2-9.1,6.2-15c0-5.8-2.1-10.7-6.2-14.9c-4.1-4.1-9.1-6.2-14.9-6.2c-5.9,0-10.9,2.1-15,6.2c-4.1,4.1-6.2,9.1-6.2,14.9
	c0,5.9,2.1,10.9,6.2,15C107.5,241.5,112.5,243.6,118.3,243.6z"/>
<path d="M321.7,222.3c0,1.8,0,3.1-0.1,3.9h-55.9c1,5,3.4,9.1,7.3,12.4s8.4,4.9,13.6,4.9c3.1,0,6-0.6,8.8-1.9s5.1-3,7-5.3l11.9,10.4
	c-3.4,4-7.6,7.1-12.4,9.3c-4.8,2.2-9.9,3.4-15.4,3.4c-6.7,0-12.9-1.7-18.5-5s-10.2-7.8-13.5-13.5c-3.3-5.7-4.9-11.9-4.9-18.5
	c0-6.7,1.6-12.9,4.9-18.5c3.3-5.7,7.8-10.2,13.5-13.5c5.7-3.3,11.9-4.9,18.5-4.9c4.7,0,9.3,1,13.6,2.9c4.3,2,8.1,4.6,11.3,7.9
	c3.2,3.3,5.7,7.2,7.6,11.8S321.7,217.2,321.7,222.3z M266.4,215.5h38.4c-1.3-4.2-3.7-7.7-7-10.3s-7.1-4-11.3-4
	c-4.6,0-8.7,1.3-12.4,4C270.4,207.8,267.9,211.3,266.4,215.5z"/>
<path d="M421.4,186.9c9.6,0,17,3.2,22.2,9.6c5.2,6.4,7.8,15.5,7.8,27.4v35.2h-17.6v-35.2c0-6.7-1.5-11.9-4.4-15.6s-7-5.5-12.4-5.5
	c-5.3,0-9.5,1.8-12.4,5.5s-4.3,8.8-4.3,15.6v35.2h-17.6l-0.1-84.7h17.6l0.1,20.9C405.5,189.7,412.5,186.9,421.4,186.9z"/>
<path d="M535.9,221.9c0,1.8,0,3.1-0.1,3.9h-55.9c1,5,3.4,9.1,7.3,12.4c3.9,3.3,8.4,4.9,13.6,4.9c3.1,0,6-0.6,8.8-1.9
	c2.8-1.3,5.1-3,7-5.3l11.9,10.4c-3.4,4-7.6,7.1-12.4,9.3c-4.8,2.2-9.9,3.4-15.4,3.4c-6.7,0-12.9-1.7-18.5-5
	c-5.7-3.3-10.2-7.8-13.5-13.5c-3.3-5.7-4.9-11.9-4.9-18.5c0-6.7,1.6-12.9,4.9-18.5c3.3-5.7,7.8-10.2,13.5-13.5
	c5.7-3.3,11.9-4.9,18.5-4.9c4.7,0,9.3,1,13.6,2.9c4.3,2,8.1,4.6,11.3,7.9c3.2,3.3,5.7,7.2,7.6,11.8S535.9,216.8,535.9,221.9z
	 M480.7,215.1H519c-1.3-4.2-3.7-7.7-7-10.3s-7.1-4-11.3-4c-4.6,0-8.7,1.3-12.4,4C484.7,207.4,482.1,210.9,480.7,215.1z"/>
<path d="M548.2,156.7h42.2v14.1h-24.6v88.2h-17.6V156.7z"/>
<g>
	<path d="M593.2,205.7L578.7,217v6.9h29.9v-7.7h-16.8l7.2-5.6c6.9-5,9.2-9.1,9.2-14.4c0-7.4-6.1-12.6-14.5-12.6
		c-6.4,0-11.4,2.8-15.3,7.7l5.4,5.2c2.9-3.3,5.8-5.2,9.7-5.2c3.2,0,6,2,6,5.2C599.5,199.4,598,202,593.2,205.7z"/>
	<path d="M631.6,223.9c10.4,0,17.8-8.5,17.8-20.5c0-12-7.4-20.4-17.8-20.4c-10.4,0-17.7,8.5-17.7,20.4
		C613.9,215.4,621.2,223.9,631.6,223.9z M631.6,190.7c5.4,0,9,5.3,9,12.7c0,7.4-3.7,12.8-9,12.8c-5.3,0-9-5.4-9-12.8
		C622.6,196,626.3,190.7,631.6,190.7z"/>
</g>
<g>
	<g>
		<path d="M666.2,272.6c12.1-8.8,16.2-16,16.2-25.3c0-13.1-10.7-22.2-25.5-22.2c-11.2,0-20,4.9-26.9,13.6l9.5,9.2
			c5.1-5.8,10.2-9.2,17-9.2c5.7,0,10.5,3.4,10.5,9.2c0,4.9-2.6,9.4-10.9,16l-25.6,19.8v12.1H683v-13.5h-29.5L666.2,272.6z"/>
	</g>
	<path d="M727.6,272.6c12.1-8.8,16.2-16,16.2-25.3c0-13.1-10.7-22.2-25.5-22.2c-11.2,0-20,4.9-26.9,13.6l9.5,9.2
		c5.1-5.8,10.2-9.2,17-9.2c5.7,0,10.5,3.4,10.5,9.2c0,4.9-2.6,9.4-10.9,16l-25.6,19.8v12.1h52.5v-13.5H715L727.6,272.6z"/>
</g>
</svg>
